<svg t="1715696273303" class="icon" viewBox="0 0 1024 1024" version="1.1" xmlns="http://www.w3.org/2000/svg" p-id="1793" width="200" height="200"><path d="M511.18601 0.545537C185.232153-11.836363-14.854703 187.991139 0.863022 510.622586c6.027736 322.179814 206.114592 524.51142 510.322988 512.90311 303.944571-2.454916 505.739583-204.853597 511.981957-512.57221C1038.666582 202.863728 836.867098 3.112244 511.18601 0.545537z m188.366754 814.99196c0.228052-0.760174-73.075122 14.599821-159.225244 15.699838-86.056218 2.978095-184.954913-8.290373-233.843072-18.973059-98.044616-21.320657-81.857372-95.509211-81.973635-94.717736 24.553634-71.156799 98.107219-122.075072 195.159137-143.596951-59.369624-39.922573-100.696284-113.404612-102.091427-192.78471C315.27117 265.654137 402.351388 170.618917 511.973014 169.921345c109.626097 0.697572 196.701844 95.72832 194.385547 211.243534-1.390672 79.308552-42.641314 152.714573-101.921506 192.663976 97.244197 21.436919 170.954288 72.373078 195.530281 143.601424 8.303788 96.743377-100.074729 100.012127-100.414572 98.107218z" p-id="1794"></path></svg>